<svg xmlns="http://www.w3.org/2000/svg" xmlns:xlink="http://www.w3.org/1999/xlink" viewBox="0,0,256,256" width="48px" height="48px" fill-rule="nonzero"><g fill="#3374e2" fill-rule="nonzero" stroke="none" stroke-width="1" stroke-linecap="butt" stroke-linejoin="miter" stroke-miterlimit="10" stroke-dasharray="" stroke-dashoffset="0" font-family="none" font-weight="none" font-size="none" text-anchor="none" style="mix-blend-mode: normal"><g transform="scale(5.33333,5.33333)"><path d="M10.5,7c-3.57194,0 -6.5,2.92806 -6.5,6.5v17c0,3.57194 2.92806,6.5 6.5,6.5h1.5v5.5c0,1.96599 2.4273,3.17893 4,2l10,-7.5h11.5c3.57194,0 6.5,-2.92806 6.5,-6.5v-17c0,-3.57194 -2.92806,-6.5 -6.5,-6.5zM10.5,10h27c1.95006,0 3.5,1.54994 3.5,3.5v17c0,1.95006 -1.54994,3.5 -3.5,3.5h-12c-0.32478,0.00015 -0.64073,0.1057 -0.90039,0.30078l-9.59961,7.19922v-6c-0.00008,-0.82839 -0.67161,-1.49992 -1.5,-1.5h-3c-1.95006,0 -3.5,-1.54994 -3.5,-3.5v-17c0,-1.95006 1.54994,-3.5 3.5,-3.5zM17,20c-1.105,0 -2,0.895 -2,2c0,1.105 0.895,2 2,2c1.105,0 2,-0.895 2,-2c0,-1.105 -0.895,-2 -2,-2zM24,20c-1.105,0 -2,0.895 -2,2c0,1.105 0.895,2 2,2c1.105,0 2,-0.895 2,-2c0,-1.105 -0.895,-2 -2,-2zM31,20c-1.105,0 -2,0.895 -2,2c0,1.105 0.895,2 2,2c1.105,0 2,-0.895 2,-2c0,-1.105 -0.895,-2 -2,-2z"></path></g></g></svg>