<svg width="20" height="20" viewBox="0 0 20 20" fill="none" xmlns="http://www.w3.org/2000/svg">
<g id="mdi:magic">
<g id="Group 3016">
<path id="Vector" d="M4.00505 5.85414C3.99412 5.87368 3.99749 5.8981 4.01332 5.91393C4.02915 5.92976 4.05358 5.93314 4.07311 5.9222L6.11883 4.7766L8.16454 5.9222C8.18408 5.93314 8.2085 5.92976 8.22433 5.91393C8.24016 5.8981 8.24354 5.87368 8.2326 5.85414L7.087 3.80843L8.2326 1.76271C8.24354 1.74318 8.24016 1.71876 8.22433 1.70293C8.2085 1.6871 8.18408 1.68372 8.16454 1.69466L6.11883 2.84026L4.07311 1.69466C4.05358 1.68372 4.02915 1.6871 4.01332 1.70293C3.99749 1.71876 3.99412 1.74318 4.00505 1.76271L5.15066 3.80843L4.00505 5.85414ZM18.1693 11.6994C18.1802 11.6799 18.1769 11.6555 18.161 11.6396C18.1452 11.6238 18.1208 11.6204 18.1012 11.6314L16.0555 12.777L14.0098 11.6314C13.9903 11.6204 13.9659 11.6238 13.95 11.6396C13.9342 11.6555 13.9308 11.6799 13.9418 11.6994L15.0874 13.7451L13.9418 15.7908C13.9308 15.8104 13.9342 15.8348 13.95 15.8506C13.9659 15.8665 13.9903 15.8698 14.0098 15.8589L16.0555 14.7133L18.1012 15.8589C18.1208 15.8698 18.1452 15.8665 18.161 15.8506C18.1769 15.8348 18.1802 15.8104 18.1693 15.7908L17.0237 13.7451L18.1693 11.6994ZM18.1693 1.76271C18.1802 1.74318 18.1769 1.71876 18.161 1.70293C18.1452 1.6871 18.1208 1.68372 18.1012 1.69466L16.0555 2.84026L14.0098 1.69466C13.9903 1.68372 13.9659 1.6871 13.95 1.70293C13.9342 1.71876 13.9308 1.74318 13.9418 1.76271L15.0874 3.80843L13.9418 5.85414C13.9308 5.87368 13.9342 5.8981 13.95 5.91393C13.9659 5.92976 13.9903 5.93314 14.0098 5.9222L16.0555 4.7766L18.1012 5.9222C18.1208 5.93314 18.1452 5.92976 18.161 5.91393C18.1769 5.8981 18.1802 5.87368 18.1693 5.85414L17.0237 3.80843L18.1693 1.76271ZM10.9547 10.594L9.26992 8.90927L11.2197 6.95952L12.9044 8.64429L10.9547 10.594ZM13.7802 8.02056L11.8434 6.0838C11.5167 5.74004 10.9464 5.74158 10.6047 6.08336L0.941227 15.7468C0.599451 16.0886 0.597915 16.6588 0.941676 16.9855C0.94184 16.9857 0.942005 16.9858 0.942169 16.986L2.87797 18.9218C2.87812 18.9219 2.87827 18.9221 2.87842 18.9223C3.2051 19.266 3.77538 19.2645 4.11716 18.9227L13.7806 9.25929C14.1224 8.91751 14.1239 8.34724 13.7802 8.02056Z" fill="#6133E2" stroke="#6133E2" stroke-width="0.1" stroke-linejoin="round"/>
</g>
</g>
</svg>
