<svg width="24" height="24" viewBox="0 0 24 24" fill="none" xmlns="http://www.w3.org/2000/svg">
<g id="Group 3042">
<path id="Vector" d="M10.3166 3.94381L17.2803 10.7231C17.4109 10.8492 17.5152 10.9998 17.5872 11.1663C17.6592 11.3329 17.6975 11.512 17.7 11.6934C17.7024 11.8749 17.6689 12.055 17.6014 12.2234C17.5338 12.3918 17.4336 12.5452 17.3065 12.6747L10.5272 19.6384C10.4012 19.7689 10.2506 19.8732 10.084 19.9452C9.91749 20.0173 9.73834 20.0556 9.55692 20.058C9.37549 20.0605 9.19538 20.027 9.02697 19.9594C8.85856 19.8919 8.70519 19.7917 8.5757 19.6646C8.44518 19.5386 8.3409 19.388 8.26888 19.2214C8.19686 19.0549 8.15852 18.8757 8.15609 18.6943C8.15365 18.5129 8.18717 18.3328 8.25469 18.1644C8.32221 17.996 8.42241 17.8426 8.54951 17.7131L14.3799 11.738L8.39126 5.92152C8.129 5.66621 7.9789 5.31717 7.97399 4.95119C7.97156 4.76997 8.00484 4.59005 8.07194 4.4217C8.13904 4.25335 8.23865 4.09986 8.36507 3.97001C8.62038 3.70775 8.96942 3.55765 9.3354 3.55274C9.51662 3.55031 9.69654 3.58359 9.86489 3.65069C10.0332 3.71779 10.1867 3.8174 10.3166 3.94381Z" fill="black" fill-opacity="0.2"/>
</g>
</svg>
