<svg width="24" height="24" viewBox="0 0 24 24" fill="none" xmlns="http://www.w3.org/2000/svg">
<g id="Group 3041">
<path id="Vector" d="M13.6834 3.94381L6.71965 10.7231C6.58912 10.8492 6.48484 10.9998 6.41282 11.1663C6.3408 11.3329 6.30247 11.512 6.30004 11.6934C6.2976 11.8749 6.33111 12.055 6.39864 12.2234C6.46616 12.3918 6.56636 12.5452 6.69346 12.6747L13.4728 19.6384C13.5988 19.7689 13.7494 19.8732 13.916 19.9452C14.0825 20.0173 14.2617 20.0556 14.4431 20.058C14.6245 20.0605 14.8046 20.027 14.973 19.9594C15.1414 19.8919 15.2948 19.7917 15.4243 19.6646C15.5548 19.5386 15.6591 19.388 15.7311 19.2214C15.8031 19.0549 15.8415 18.8757 15.8439 18.6943C15.8463 18.5129 15.8128 18.3328 15.7453 18.1644C15.6778 17.996 15.5776 17.8426 15.4505 17.7131L9.62009 11.738L15.6087 5.92152C15.871 5.66621 16.0211 5.31717 16.026 4.95119C16.0284 4.76997 15.9952 4.59005 15.9281 4.4217C15.861 4.25335 15.7614 4.09986 15.6349 3.97001C15.3796 3.70775 15.0306 3.55765 14.6646 3.55274C14.4834 3.55031 14.3035 3.58359 14.1351 3.65069C13.9668 3.71779 13.8133 3.8174 13.6834 3.94381Z" fill="black" fill-opacity="0.2"/>
</g>
</svg>
