<svg width="48" height="48" viewBox="0 0 48 48" fill="none" xmlns="http://www.w3.org/2000/svg">
<g id="Group">
<path id="Vector" d="M24 48C10.7667 48 0 37.2333 0 24C0 10.7667 10.7667 0 24 0C37.2333 0 48 10.7661 48 24C48 37.2338 37.2333 48 24 48ZM24 2.52632C12.1592 2.52632 2.52632 12.1592 2.52632 24C2.52632 35.8408 12.1592 45.4737 24 45.4737C35.8408 45.4737 45.4737 35.8408 45.4737 24C45.4737 12.1597 35.8408 2.52632 24 2.52632Z" fill="#6133E2"/>
<g id="Group_2">
<path id="Vector_2" d="M24.0002 30.9682C23.4391 30.9682 22.9844 30.5135 22.9844 29.9524V11.005C22.9844 10.444 23.4391 9.98926 24.0002 9.98926C24.5612 9.98926 25.016 10.444 25.016 11.005V29.9524C25.016 30.5135 24.5612 30.9682 24.0002 30.9682Z" fill="#6133E2" stroke="#6133E2"/>
<path id="Vector_3" d="M24.0002 36.9945C24.8373 36.9945 25.516 36.3158 25.516 35.4787C25.516 34.6415 24.8373 33.9629 24.0002 33.9629C23.163 33.9629 22.4844 34.6415 22.4844 35.4787C22.4844 36.3158 23.163 36.9945 24.0002 36.9945Z" fill="#6133E2"/>
</g>
</g>
</svg>
