<svg width="150" height="150" viewBox="0 0 150 150" fill="none" xmlns="http://www.w3.org/2000/svg">
<rect width="150" height="150" fill="#C3C3C3"/>
<rect x="-3742" y="-1336" width="12816" height="5528" fill="#D9D9D9"/>
<g clip-path="url(#clip0_0_1)">
<rect width="1920" height="1080" transform="translate(-1092 -431)" fill="white"/>
<path d="M-1092 -431H834V649H-1092V-431Z" fill="#F7F7FC"/>
<rect x="-131" y="-72" width="411" height="472" rx="20" fill="white"/>
<rect x="-130.5" y="-71.5" width="410" height="471" rx="19.5" stroke="#6133E2" stroke-opacity="0.15"/>
<circle cx="75" cy="75" r="75" fill="#F4F4FC" style="mix-blend-mode:multiply"/>
<path d="M52.6531 55.5875C52.6424 55.6071 52.6461 55.6315 52.6621 55.6472C52.6781 55.6628 52.7025 55.6659 52.7219 55.6548L61.2767 50.7346L69.8315 55.6548C69.8509 55.6659 69.8753 55.6628 69.8913 55.6472C69.9073 55.6315 69.911 55.6071 69.9003 55.5875L65.1087 46.7998L69.9003 38.0122C69.911 37.9926 69.9073 37.9682 69.8913 37.9525C69.8753 37.9369 69.8509 37.9338 69.8315 37.9449L61.2767 42.8651L52.7219 37.9449C52.7025 37.9338 52.6781 37.9369 52.6621 37.9525C52.6461 37.9682 52.6424 37.9926 52.6531 38.0122L57.4447 46.7998L52.6531 55.5875ZM111.083 80.3077C111.093 80.2881 111.09 80.2637 111.074 80.2481C111.058 80.2324 111.033 80.2293 111.014 80.2405L102.459 85.1606L93.9044 80.2405C93.885 80.2293 93.8606 80.2324 93.8446 80.2481C93.8285 80.2637 93.8249 80.2881 93.8356 80.3077L98.6272 89.0954L93.8356 97.883C93.8249 97.9027 93.8285 97.927 93.8446 97.9427C93.8606 97.9583 93.885 97.9614 93.9044 97.9503L102.459 93.0301L111.014 97.9503C111.033 97.9614 111.058 97.9583 111.074 97.9427C111.09 97.927 111.093 97.9027 111.083 97.883L106.291 89.0954L111.083 80.3077ZM111.083 38.0122C111.093 37.9926 111.09 37.9682 111.074 37.9525C111.058 37.9369 111.033 37.9338 111.014 37.9449L102.459 42.8651L93.9044 37.9449C93.885 37.9338 93.8606 37.9369 93.8446 37.9525C93.8285 37.9682 93.8249 37.9926 93.8356 38.0122L98.6272 46.7998L93.8356 55.5875C93.8249 55.6071 93.8285 55.6315 93.8446 55.6472C93.8606 55.6628 93.885 55.6659 93.9044 55.6548L102.459 50.7346L111.014 55.6548C111.033 55.6659 111.058 55.6628 111.074 55.6472C111.09 55.6315 111.093 55.6071 111.083 55.5875L106.291 46.7998L111.083 38.0122ZM82.417 59.9831L89.6228 67.3837L81.3188 75.9121L74.1131 68.5116L82.417 59.9831ZM92.9191 64.8454L84.8904 56.5996C84.8902 56.5995 84.8901 56.5993 84.8899 56.5991C83.5998 55.203 81.3363 55.2046 79.9789 56.5987L39.9289 97.7311C38.5723 99.1244 38.5708 101.447 39.9294 102.771C39.9296 102.771 39.9297 102.771 39.9299 102.771L47.9586 111.017C47.9588 111.017 47.9589 111.018 47.9591 111.018C49.2492 112.414 51.5127 112.412 52.8701 111.018L92.9201 69.8858C94.2767 68.4925 94.2782 66.1702 92.9196 64.8458C92.9195 64.8457 92.9193 64.8455 92.9191 64.8454Z" fill="url(#paint0_linear_0_1)" stroke="white" stroke-width="0.1" stroke-linejoin="round"/>
</g>
<defs>
<linearGradient id="paint0_linear_0_1" x1="49.0653" y1="37.9883" x2="110.967" y2="112.074" gradientUnits="userSpaceOnUse">
<stop stop-color="#5E5EFF"/>
<stop offset="1" stop-color="#9533E2"/>
</linearGradient>
<clipPath id="clip0_0_1">
<rect width="1920" height="1080" fill="white" transform="translate(-1092 -431)"/>
</clipPath>
</defs>
</svg>
