<svg xmlns="http://www.w3.org/2000/svg" xmlns:xlink="http://www.w3.org/1999/xlink" viewBox="0,0,256,256" width="32px" height="32px" fill-rule="nonzero"><g fill="#6133e2" fill-rule="nonzero" stroke="none" stroke-width="1" stroke-linecap="butt" stroke-linejoin="miter" stroke-miterlimit="10" stroke-dasharray="" stroke-dashoffset="0" font-family="none" font-weight="none" font-size="none" text-anchor="none" style="mix-blend-mode: normal"><g transform="scale(16,16)"><path d="M6.5,1c-0.27734,0 -0.5,0.22266 -0.5,0.5v0.78125c-0.39844,0.11719 -0.77344,0.27344 -1.125,0.46875l-0.55469,-0.55469c-0.19531,-0.19141 -0.51562,-0.19141 -0.71094,0l-1.41406,1.41406c-0.19141,0.19531 -0.19141,0.51563 0,0.71094l0.5625,0.55469c-0.19922,0.35547 -0.35547,0.73047 -0.46875,1.125h-0.78906c-0.27734,0 -0.5,0.22266 -0.5,0.5v2c0,0.27734 0.22266,0.5 0.5,0.5h0.78125c0.11719,0.39844 0.27344,0.77344 0.46875,1.125l-0.55469,0.55859c-0.19141,0.19141 -0.19141,0.51172 0,0.70703l1.41406,1.41016c0.19531,0.19531 0.51563,0.19531 0.71094,0l0.55469,-0.55469c0.35156,0.19531 0.72656,0.35156 1.125,0.46875v0.78516c0,0.27734 0.22266,0.5 0.5,0.5h2c0.27344,0 0.49609,-0.22266 0.5,-0.5v-0.78125c0.39844,-0.11719 0.77344,-0.27344 1.125,-0.46875l0.55859,0.55078c0.19141,0.19531 0.51172,0.19531 0.70703,0l1.41016,-1.41016c0.19531,-0.19531 0.19531,-0.51562 0,-0.70703l-0.55859,-0.55859c0.19531,-0.35156 0.35547,-0.72656 0.47266,-1.125h0.78516c0.27734,0 0.5,-0.22266 0.5,-0.5v-2c0,-0.27734 -0.22266,-0.5 -0.5,-0.5h-0.78906c-0.11328,-0.39453 -0.26562,-0.77344 -0.46094,-1.12891l0.55078,-0.55078c0.19531,-0.19531 0.19531,-0.51562 0,-0.71094l-1.41016,-1.41406c-0.09375,-0.09375 -0.22266,-0.14453 -0.35547,-0.14453c-0.13281,0 -0.25781,0.05078 -0.35156,0.14453l-0.55469,0.55469c-0.35156,-0.19922 -0.73047,-0.35547 -1.12891,-0.47266v-0.77734c0,-0.27734 -0.22266,-0.5 -0.5,-0.5zM7,2h1v0.60156c0,0.23828 0.16797,0.44141 0.39844,0.49219c0.57422,0.11328 1.10547,0.33984 1.57813,0.65625c0.19922,0.12891 0.46484,0.10156 0.63281,-0.06641l0.42578,-0.42578l0.70703,0.70703l-0.42969,0.42578c-0.16406,0.17188 -0.19141,0.43359 -0.0625,0.63281c0.3125,0.46484 0.52734,1 0.64453,1.57813c0.05078,0.23047 0.25391,0.39844 0.49219,0.39844h0.61328v1h-0.60937c-0.23828,0 -0.44141,0.16797 -0.48828,0.40234c-0.11719,0.56641 -0.34766,1.09375 -0.66016,1.56641c-0.13281,0.19922 -0.10547,0.46094 0.0625,0.62891l0.4375,0.4375l-0.70703,0.70703l-0.4375,-0.43359c-0.16406,-0.16797 -0.42969,-0.19531 -0.62891,-0.0625c-0.47656,0.3125 -1,0.54688 -1.57031,0.66016c-0.23047,0.04688 -0.39844,0.25391 -0.39844,0.49219v0.60156h-1v-0.60937c0,-0.23828 -0.16797,-0.44141 -0.40234,-0.48828c-0.56641,-0.11719 -1.09375,-0.34766 -1.56641,-0.66016c-0.19922,-0.12891 -0.46484,-0.10547 -0.63281,0.06641l-0.43359,0.43359l-0.70703,-0.70703l0.43359,-0.43359c0.16797,-0.16797 0.19531,-0.42969 0.06641,-0.62891c-0.31641,-0.48047 -0.55078,-1.00391 -0.66406,-1.57422c-0.05078,-0.23047 -0.25391,-0.39844 -0.49219,-0.39844h-0.60156v-1h0.60938c0.23828,0 0.44141,-0.16797 0.49219,-0.39844c0.11328,-0.57031 0.34375,-1.09766 0.65625,-1.57031c0.12891,-0.19922 0.10547,-0.46484 -0.0625,-0.63281l-0.4375,-0.43359l0.70703,-0.70703l0.43359,0.43359c0.16797,0.16797 0.42969,0.19531 0.62891,0.06641c0.48047,-0.31641 1.00391,-0.55078 1.57422,-0.66406c0.23047,-0.05078 0.39844,-0.25391 0.39844,-0.49219zM7.58594,5c-1.37109,-0.04687 -2.53516,1.03906 -2.58594,2.41406c-0.04687,1.37109 1.03906,2.53516 2.41406,2.58594c1.37109,0.04688 2.53516,-1.03906 2.58594,-2.41406c0.04688,-1.37109 -1.03906,-2.53516 -2.41406,-2.58594zM7.55469,6c0.83203,0.03125 1.47656,0.71875 1.44531,1.55469c-0.03125,0.83203 -0.71875,1.47656 -1.55469,1.44531c-0.83203,-0.03125 -1.47656,-0.71875 -1.44531,-1.55469c0.03125,-0.83203 0.71875,-1.47656 1.55469,-1.44531z"></path></g></g></svg>